<?xml version="1.0" encoding="UTF-8"?>
<svg id="Artwork" xmlns="http://www.w3.org/2000/svg" viewBox="0 0 289.24 116.84">
  <defs>
    <style>
      .cls-1, .cls-2 {
        stroke-width: 0px;
      }

      .cls-2 {
        fill: #fff;
      }
    </style>
  </defs>
  <g>
    <path class="cls-1" d="m212.44,84.98c-7.56,0-13.5-1.79-17.65-5.33-4.24-3.61-6.39-9.04-6.39-16.14v-25.15c0-2.99,3.82-4.34,5.08-4.79,2.77-.98,6-1.47,9.61-1.47,3.36,0,5.57.74,6.77,2.27.87,1.2,1.27,2.24,1.27,3.24v20.42c0,6.23.29,8.79.53,9.83.26,1.1.57,1.1.74,1.1.18,0,.45,0,.67-1,.22-1.02.47-3.59.47-10.01v-19.6c0-2.99,3.82-4.34,5.07-4.79,2.77-.98,5.98-1.47,9.55-1.47s5.79.76,6.93,2.31c.81,1.21,1.18,2.23,1.18,3.2v25.9c0,7.09-2.11,12.52-6.28,16.13-4.09,3.54-10,5.34-17.56,5.34Z"/>
    <path class="cls-2" d="m212.44,85.12c-7.59,0-13.56-1.8-17.74-5.36-4.27-3.64-6.44-9.11-6.44-16.25v-25.15c0-3.09,3.89-4.47,5.17-4.92,2.78-.98,6.03-1.48,9.66-1.48,3.41,0,5.66.76,6.88,2.33.89,1.23,1.31,2.29,1.31,3.32v20.42c0,6.21.29,8.76.53,9.8.23.99.48.99.6.99s.34,0,.53-.89c.22-1.01.47-3.57.47-9.98v-19.6c0-3.09,3.89-4.47,5.17-4.92,2.79-.98,6.01-1.48,9.6-1.48s5.87.77,7.05,2.37c.82,1.23,1.2,2.27,1.2,3.28v25.9c0,7.14-2.13,12.6-6.33,16.24-4.11,3.57-10.05,5.37-17.65,5.37Zm-9.35-52.88c-3.6,0-6.81.49-9.57,1.47-1.23.44-4.98,1.76-4.98,4.65v25.15c0,7.06,2.13,12.45,6.34,16.03,4.13,3.51,10.03,5.29,17.56,5.29s13.4-1.78,17.47-5.3c4.13-3.58,6.23-8.97,6.23-16.02v-25.9c0-.95-.37-1.94-1.15-3.12-1.12-1.51-3.35-2.25-6.82-2.25s-6.75.49-9.5,1.47c-1.23.44-4.98,1.76-4.98,4.65v19.6c0,6.43-.26,9.01-.48,10.04-.22,1.03-.52,1.11-.8,1.11-.31,0-.63-.15-.88-1.21-.25-1.06-.54-3.62-.54-9.87v-20.42c0-.98-.4-1.98-1.25-3.15-1.16-1.49-3.34-2.21-6.65-2.21Z"/>
  </g>
  <path class="cls-2" d="m228.81,78.28c-3.77,3.27-9.23,4.9-16.38,4.9s-12.64-1.63-16.48-4.9c-3.84-3.27-5.76-8.19-5.76-14.77v-25.15c0-1.14,1.29-2.17,3.87-3.08,2.58-.91,5.58-1.37,9.01-1.37,2.74,0,4.52.53,5.34,1.58.59.82.89,1.53.89,2.12v20.42c0,5.16.19,8.58.58,10.24.39,1.67,1.22,2.5,2.5,2.5s2.09-.81,2.43-2.43c.34-1.62.51-5.08.51-10.38v-19.6c0-1.14,1.29-2.17,3.87-3.08,2.58-.91,5.56-1.37,8.94-1.37,2.88,0,4.7.53,5.48,1.58.55.82.82,1.53.82,2.12v25.9c0,6.58-1.88,11.5-5.65,14.77Z"/>
  <g>
    <path class="cls-1" d="m170.59,82.56c-3.96,0-5.28-.3-5.99-.55-1.54-.55-2.42-1.74-2.42-3.24v-11.51c-13.57-27.77-13.57-29.59-13.57-30.57,0-2.4,2.94-3.74,5.81-4.72,3.24-1.11,6.69-1.67,10.25-1.67,6.72,0,8.45,2.97,8.72,5.45l.2,2,.11-1.46c.21-2.88,3.65-4.09,6.22-4.74,3.28-.83,6.45-1.26,9.42-1.26,3.26,0,5.55.52,6.98,1.59,1.57,1.18,2.37,2.54,2.37,4.05,0,.76,0,1.69-13.77,31.3v11.52c0,2.28-2.84,2.85-5.75,3.23-2.84.37-5.72.56-8.56.56Z"/>
    <path class="cls-2" d="m170.59,82.7c-3.98,0-5.32-.3-6.04-.56-1.6-.58-2.52-1.81-2.52-3.37v-11.47c-13.57-27.77-13.57-29.61-13.57-30.6,0-2.49,2.99-3.86,5.91-4.86,3.25-1.12,6.72-1.68,10.3-1.68,6.83,0,8.59,3.03,8.86,5.58l.04.38c.33-2.86,3.75-4.05,6.32-4.7,3.3-.84,6.48-1.26,9.46-1.26,3.3,0,5.61.53,7.06,1.62,1.61,1.21,2.42,2.61,2.42,4.16,0,.81,0,1.72-13.77,31.33v11.49c0,2.4-2.9,2.98-5.88,3.37-2.85.37-5.73.56-8.58.56Zm-5.93-52.26c-3.55,0-6.98.56-10.2,1.67-2.83.97-5.71,2.28-5.71,4.59,0,.97,0,2.77,13.55,30.5v.03s.01,11.54.01,11.54c0,1.44.85,2.57,2.33,3.1.7.25,2.01.55,5.95.55,2.83,0,5.71-.19,8.54-.56,2.85-.37,5.63-.92,5.63-3.09v-11.58c13.77-29.58,13.77-30.54,13.77-31.24,0-1.46-.78-2.78-2.31-3.94-1.41-1.05-3.66-1.57-6.89-1.57-2.95,0-6.11.42-9.38,1.25-2.53.64-5.92,1.82-6.12,4.61l-.11,1.46h-.28s-.2-2-.2-2c-.26-2.43-1.96-5.32-8.57-5.32Z"/>
  </g>
  <path class="cls-2" d="m178.92,80.2c-2.79.37-5.56.55-8.33.55s-4.56-.15-5.38-.45c-.82-.3-1.23-.81-1.23-1.54v-11.92c-9.05-18.5-13.57-28.55-13.57-30.15,0-.96,1.53-1.96,4.59-3.02,3.06-1.05,6.28-1.58,9.66-1.58,4.34,0,6.65,1.28,6.92,3.84l1.85,18.43h.75l1.3-17.95c.09-1.28,1.71-2.32,4.87-3.12s6.14-1.2,8.98-1.2,4.8.41,5.89,1.23c1.1.82,1.64,1.69,1.64,2.6s-4.59,11.17-13.77,30.9v11.92c0,.59-1.39,1.07-4.18,1.44Z"/>
  <g>
    <path class="cls-1" d="m134.07,86.78c-7.56,0-13.5-1.79-17.65-5.33-4.24-3.61-6.39-9.04-6.39-16.14v-25.15c0-2.99,3.82-4.34,5.07-4.79,2.77-.98,6-1.47,9.61-1.47,3.36,0,5.57.74,6.77,2.27.87,1.2,1.27,2.24,1.27,3.24v20.42c0,6.23.29,8.79.54,9.83.26,1.1.57,1.1.74,1.1.18,0,.45,0,.66-1,.22-1.03.48-3.59.48-10.01v-19.6c0-2.99,3.82-4.34,5.07-4.79,2.77-.98,5.98-1.47,9.55-1.47s5.79.76,6.93,2.31c.81,1.21,1.18,2.23,1.18,3.2v25.9c0,7.09-2.11,12.52-6.28,16.13-4.09,3.54-10,5.34-17.56,5.34Z"/>
    <path class="cls-2" d="m134.07,86.92c-7.59,0-13.56-1.8-17.74-5.36-4.27-3.64-6.44-9.11-6.44-16.25v-25.15c0-3.09,3.89-4.47,5.17-4.92,2.79-.98,6.04-1.48,9.66-1.48,3.41,0,5.66.76,6.88,2.33.89,1.23,1.31,2.29,1.31,3.32v20.42c0,6.21.29,8.76.53,9.8.23.99.48.99.6.99s.34,0,.52-.89c.22-1.02.47-3.58.47-9.98v-19.6c0-3.09,3.89-4.47,5.17-4.92,2.78-.98,6.01-1.48,9.6-1.48s5.87.77,7.05,2.37c.82,1.23,1.2,2.27,1.2,3.28v25.9c0,7.14-2.13,12.6-6.33,16.24-4.11,3.57-10.05,5.37-17.65,5.37Zm-9.35-52.88c-3.6,0-6.81.49-9.57,1.47-1.23.44-4.98,1.76-4.98,4.65v25.15c0,7.06,2.13,12.45,6.34,16.03,4.13,3.51,10.03,5.29,17.56,5.29s13.4-1.78,17.47-5.3c4.13-3.58,6.23-8.97,6.23-16.02v-25.9c0-.95-.37-1.94-1.15-3.12-1.12-1.51-3.35-2.25-6.82-2.25s-6.75.49-9.5,1.47c-1.23.44-4.98,1.76-4.98,4.65v19.6c0,6.43-.26,9-.48,10.04-.22,1.03-.52,1.11-.8,1.11-.31,0-.63-.15-.88-1.21-.25-1.06-.54-3.63-.54-9.87v-20.42c0-.98-.4-1.98-1.25-3.15-1.16-1.49-3.34-2.21-6.65-2.21Z"/>
  </g>
  <path class="cls-2" d="m150.45,80.07c-3.77,3.27-9.23,4.9-16.38,4.9s-12.64-1.63-16.48-4.9c-3.84-3.27-5.76-8.19-5.76-14.77v-25.15c0-1.14,1.29-2.17,3.87-3.08,2.58-.91,5.58-1.37,9.01-1.37,2.74,0,4.52.53,5.34,1.58.59.82.89,1.53.89,2.12v20.42c0,5.16.19,8.58.58,10.24s1.22,2.5,2.5,2.5,2.09-.81,2.43-2.43c.34-1.62.51-5.08.51-10.38v-19.6c0-1.14,1.29-2.17,3.87-3.08,2.58-.91,5.56-1.37,8.94-1.37,2.88,0,4.7.53,5.48,1.58.55.82.82,1.53.82,2.12v25.9c0,6.58-1.88,11.5-5.65,14.77Z"/>
  <g>
    <path class="cls-1" d="m101.48,82.56c-4.01,0-5.34-.33-6.05-.61-1.48-.59-2.34-1.75-2.34-3.18v-13.89h-2.49v13.89c0,2.28-2.82,2.85-5.71,3.23-2.82.37-5.71.56-8.6.56-4.04,0-5.38-.33-6.08-.61-1.48-.59-2.34-1.75-2.34-3.18v-42.14c0-2.99,3.9-4.37,5.18-4.82,2.84-1,5.94-1.51,9.24-1.51,6.87,0,8.32,2.66,8.32,4.89v13.27h2.49v-11.83c0-2.99,3.93-4.37,5.22-4.82,2.86-1,5.97-1.51,9.27-1.51,6.82,0,8.25,2.66,8.25,4.89v43.58c0,2.28-2.84,2.85-5.75,3.23-2.84.37-5.73.56-8.59.56Z"/>
    <path class="cls-2" d="m101.48,82.7c-4.04,0-5.38-.33-6.1-.62-1.54-.62-2.43-1.82-2.43-3.32v-13.74h-2.2v13.74c0,2.4-2.88,2.98-5.84,3.37-2.82.38-5.72.57-8.61.57-4.07,0-5.42-.33-6.14-.62-1.54-.62-2.42-1.83-2.42-3.32v-42.14c0-3.09,3.97-4.49,5.27-4.96,2.85-1.01,5.97-1.52,9.28-1.52,6.99,0,8.46,2.74,8.46,5.03v13.13h2.2v-11.69c0-3.09,4-4.5,5.31-4.96,2.87-1.01,6.01-1.51,9.31-1.51,6.94,0,8.39,2.74,8.39,5.03v43.58c0,2.4-2.9,2.98-5.88,3.37-2.85.37-5.74.56-8.61.56Zm-11.01-17.96h2.77v14.03c0,1.37.82,2.48,2.25,3.05.7.28,2.01.6,6,.6,2.86,0,5.74-.19,8.58-.56,2.85-.37,5.63-.92,5.63-3.09v-43.58c0-2.17-1.41-4.75-8.11-4.75-3.28,0-6.38.5-9.22,1.5-1.27.45-5.12,1.8-5.12,4.69v11.97h-2.77v-13.41c0-2.17-1.42-4.75-8.17-4.75-3.28,0-6.37.5-9.19,1.5-1.26.44-5.08,1.8-5.08,4.69v42.14c0,1.37.82,2.48,2.25,3.05.7.28,2.01.6,6.03.6,2.88,0,5.77-.19,8.58-.56,2.83-.37,5.59-.92,5.59-3.09v-14.03Z"/>
  </g>
  <path class="cls-2" d="m84.66,80.2c-2.76.37-5.55.55-8.36.55s-4.61-.16-5.41-.48c-.8-.32-1.2-.82-1.2-1.51v-42.14c0-1.14,1.32-2.18,3.97-3.12,2.65-.94,5.53-1.4,8.63-1.4,4.34,0,6.51,1.03,6.51,3.08v15.07h6.1v-13.64c0-1.14,1.34-2.18,4.01-3.12,2.67-.94,5.56-1.4,8.67-1.4,4.29,0,6.44,1.03,6.44,3.08v43.58c0,.59-1.39,1.07-4.18,1.44-2.79.37-5.57.55-8.36.55s-4.58-.16-5.38-.48-1.2-.82-1.2-1.51v-15.69h-6.1v15.69c0,.59-1.38,1.07-4.14,1.44Z"/>
  <g>
    <path class="cls-1" d="m55.99,85.32c-1.84,0-3.31-.05-4.34-.14-1.07-.1-2.45-.34-4.11-.72-1.73-.4-3.33-.95-4.77-1.64-1.45-.7-2.99-1.72-4.58-3.05-1.64-1.36-3.03-2.99-4.13-4.85-2.49-4.19-3.75-9.62-3.75-16.13,0-4.37.7-8.31,2.09-11.71,1.4-3.42,3.13-6.13,5.17-8.03,1.99-1.87,4.29-3.38,6.84-4.52,4.04-1.83,8.19-2.76,12.31-2.76,5.85,0,9.98.49,12.63,1.49,1.33.5,2.53,1.28,3.58,2.33,1.22,1.22,1.83,2.92,1.83,5.05,0,1.85-.42,4.07-1.28,6.78-1.32,4.16-3.55,5.03-5.18,5.03-.44,0-1.26-.09-5.51-1.15-3.45-.86-4.91-1.04-5.52-1.04s-1.52.19-2.55,1.83c-.93,1.48-1.4,3.72-1.4,6.65s.42,5.27,1.26,6.82c.96,1.79,1.92,1.79,2.28,1.79.54,0,1.99-.17,5.66-1.32,4.39-1.37,5.28-1.49,5.78-1.49,2.29,0,3.99,1.74,5.05,5.18.86,2.81,1.28,5.04,1.28,6.83,0,2.11-.68,3.83-2.03,5.11-1.21,1.16-2.91,2-5.04,2.51-1.89.45-3.86.76-5.85.93-1.93.16-3.85.25-5.7.25Z"/>
    <path class="cls-2" d="m55.99,85.47c-1.85,0-3.31-.05-4.36-.14-1.07-.1-2.46-.35-4.13-.73-1.74-.4-3.35-.95-4.8-1.65-1.46-.7-3.01-1.74-4.61-3.06-1.65-1.37-3.05-3.01-4.16-4.89-2.5-4.21-3.77-9.67-3.77-16.21,0-4.39.71-8.35,2.1-11.77,1.4-3.45,3.15-6.17,5.2-8.09,2-1.88,4.32-3.4,6.88-4.54,4.06-1.84,8.23-2.77,12.37-2.77,5.87,0,10.01.49,12.68,1.5,1.35.51,2.57,1.3,3.63,2.36,1.24,1.24,1.87,2.98,1.87,5.15,0,1.86-.42,4.1-1.29,6.83-1.35,4.24-3.64,5.13-5.32,5.13-.45,0-1.28-.09-5.54-1.15-3.44-.86-4.88-1.04-5.49-1.04-.57,0-1.44.18-2.43,1.76-.92,1.46-1.38,3.67-1.38,6.57s.42,5.22,1.24,6.75c.92,1.72,1.82,1.72,2.16,1.72.53,0,1.96-.17,5.62-1.32,4.4-1.38,5.32-1.5,5.82-1.5,2.36,0,4.11,1.78,5.19,5.28.86,2.82,1.28,5.07,1.28,6.88,0,2.15-.7,3.9-2.08,5.21-1.23,1.18-2.95,2.03-5.11,2.54-1.89.45-3.87.77-5.87.94-1.94.16-3.86.25-5.71.25Zm.72-53.56c-4.1,0-8.22.92-12.25,2.75-2.54,1.12-4.83,2.63-6.8,4.49-2.02,1.89-3.74,4.58-5.13,7.98-1.38,3.38-2.08,7.31-2.08,11.66,0,6.49,1.25,11.89,3.73,16.06,1.1,1.85,2.48,3.47,4.1,4.82,1.58,1.31,3.11,2.33,4.55,3.03,1.43.69,3.02,1.24,4.74,1.63,1.65.38,3.03.62,4.09.72,1.04.09,2.49.14,4.33.14s3.76-.08,5.69-.25c1.99-.17,3.95-.48,5.83-.93,2.11-.5,3.78-1.33,4.98-2.47,1.32-1.26,1.99-2.94,1.99-5.01,0-1.78-.42-4-1.27-6.79-1.04-3.37-2.69-5.08-4.91-5.08-.49,0-1.37.11-5.74,1.48-3.69,1.16-5.16,1.33-5.7,1.33-.38,0-1.4,0-2.41-1.87-.85-1.57-1.27-3.89-1.27-6.88s.48-5.22,1.42-6.72c1.07-1.7,2.03-1.89,2.67-1.89s2.09.18,5.56,1.05c4.23,1.06,5.04,1.15,5.47,1.15,1.59,0,3.75-.85,5.05-4.93.86-2.7,1.28-4.91,1.28-6.74,0-2.09-.6-3.76-1.79-4.95-1.04-1.03-2.22-1.81-3.53-2.3-2.63-.99-6.75-1.48-12.58-1.48Z"/>
  </g>
  <path class="cls-2" d="m67.12,82.39c-1.83.44-3.69.73-5.58.89-1.9.16-3.75.24-5.55.24s-3.2-.05-4.18-.14c-.98-.09-2.27-.32-3.87-.69-1.6-.37-3.06-.87-4.39-1.51-1.33-.64-2.73-1.58-4.21-2.81-1.48-1.23-2.73-2.7-3.73-4.39-2.33-3.93-3.5-9-3.5-15.21,0-4.16.65-7.84,1.95-11.03s2.88-5.66,4.73-7.4c1.85-1.74,3.96-3.13,6.34-4.18,3.84-1.74,7.7-2.6,11.58-2.6,5.57,0,9.57.46,11.99,1.37,1.1.41,2.08,1.05,2.95,1.92.87.87,1.3,2.12,1.3,3.77s-.4,3.72-1.2,6.24-1.95,3.77-3.46,3.77c-.46,0-2.15-.37-5.07-1.1-2.92-.73-4.91-1.1-5.96-1.1-1.6,0-2.96.89-4.08,2.67-1.12,1.78-1.68,4.32-1.68,7.61s.49,5.85,1.47,7.67c.98,1.83,2.27,2.74,3.87,2.74,1.14,0,3.21-.47,6.2-1.4,2.99-.94,4.74-1.41,5.24-1.41,1.42,0,2.52,1.3,3.32,3.91.8,2.6,1.2,4.71,1.2,6.3s-.49,2.87-1.47,3.8c-.98.94-2.39,1.62-4.21,2.06Z"/>
  <g>
    <path class="cls-2" d="m257.94,30.23v2.63h1v4.83h-1v3.46h-5v-3.35l-.94,2.83c-.46-.28-1-.53-1.63-.73-.63-.2-1.32-.33-2.06-.38l.69-2.39c-.57.86-1.3,1.56-2.19,2.07s-1.91.88-3.05,1.07l-.98-4.39c.67-.25,1.2-.47,1.6-.68s.7-.45.9-.73h-1.91v-3.59h2.35c.02-.25.02-.52,0-.83h5c.01.15.02.29.02.43v.41h1.8v3.59h-2.48c-.01.15-.04.29-.08.43-.04.14-.08.28-.12.42.54.02,1.09.1,1.64.21.55.12,1.03.28,1.45.49v-5.81h5Zm-14.18,10.59h5.33v1h9.02v4.41h-14.35v-5.41Z"/>
    <path class="cls-1" d="m258.25,46.37h-14.64v-5.69h5.62v1h9.02v4.69Zm-14.35-.29h14.07v-4.12h-9.02v-1h-5.05v5.12Zm14.18-4.79h-5.29v-2.61l-.72,2.17-.15-.1c-.45-.28-.98-.52-1.6-.72-.62-.2-1.3-.32-2.02-.37h-.18s.52-1.82.52-1.82c-.5.59-1.09,1.09-1.77,1.48-.91.52-1.95.89-3.09,1.09l-.13.02-1.04-4.64.12-.04c.66-.24,1.19-.47,1.59-.67.27-.14.49-.29.66-.46h-1.74v-3.88h2.36c.01-.21,0-.43-.01-.68v-.15s5.27,0,5.27,0v.13c.02.15.03.3.03.44v.26h1.8v3.88h-2.5c-.02.11-.04.22-.07.33-.03.08-.05.16-.07.24.49.03.99.1,1.48.21.47.1.9.24,1.28.41v-5.73h5.29v2.63h1v5.12h-1v3.46Zm-5-.29h4.71v-3.46h1v-4.55h-1v-2.63h-4.71v5.9l-.21-.1c-.41-.2-.89-.36-1.42-.48-.54-.12-1.08-.19-1.62-.21h-.18s.05-.18.05-.18c.04-.14.08-.28.12-.42.04-.13.07-.27.08-.4v-.13h2.48v-3.31h-1.8v-.55c0-.09,0-.19,0-.28h-4.71c.01.26.01.49-.01.7v.13h-2.35v3.31h2.04l-.16.22c-.21.3-.53.56-.95.78-.38.19-.88.41-1.5.64l.92,4.13c1.06-.2,2.02-.55,2.87-1.03.87-.5,1.59-1.19,2.15-2.03l.26.12-.64,2.22c.68.06,1.33.18,1.91.37.57.18,1.07.4,1.51.65l.89-2.66.28.05v3.21Z"/>
  </g>
  <g>
    <path class="cls-2" d="m243.03,57.07h15.67v4.67h-5.07v2.69h-5.5v-2.69h-5.09v-4.67Zm11.22-.48h-6.78c-.79,0-1.5-.16-2.13-.49-.63-.33-1.13-.8-1.49-1.41s-.55-1.33-.55-2.16c0-1.04.18-1.85.54-2.44.36-.59.85-1.02,1.48-1.28.63-.26,1.35-.39,2.15-.39h6.78c.85,0,1.59.13,2.21.38.62.25,1.1.68,1.44,1.28.34.6.51,1.42.51,2.45,0,.84-.18,1.56-.53,2.18-.35.61-.84,1.08-1.46,1.4-.62.32-1.35.48-2.18.48Zm-1.11-4.33h-4.52c-.18,0-.31,0-.39.03-.07.02-.11.1-.11.23,0,.12.04.19.11.21.07.02.2.03.39.03h4.52c.17,0,.3,0,.38-.03.08-.02.12-.09.12-.21,0-.14-.04-.21-.12-.23-.08-.02-.21-.03-.38-.03Z"/>
    <path class="cls-1" d="m253.76,64.56h-5.79v-2.69h-5.09v-4.95h15.95v4.95h-5.07v2.69Zm-5.5-.29h5.21v-2.69h5.07v-4.38h-15.38v4.38h5.09v2.69Zm5.99-7.55h-6.78c-.81,0-1.55-.17-2.2-.51-.65-.34-1.17-.83-1.55-1.46-.38-.63-.57-1.38-.57-2.23,0-1.06.19-1.91.56-2.52.37-.62.89-1.07,1.55-1.34.64-.27,1.38-.4,2.2-.4h6.78c.86,0,1.63.13,2.27.39.65.26,1.16.72,1.51,1.34.35.62.53,1.47.53,2.52,0,.86-.18,1.62-.55,2.25-.36.63-.88,1.12-1.52,1.45-.64.33-1.4.5-2.24.5Zm-6.78-8.17c-.78,0-1.48.13-2.09.38-.6.25-1.07.66-1.41,1.22-.34.57-.52,1.36-.52,2.37,0,.8.18,1.5.53,2.08.35.58.83,1.04,1.43,1.35.61.32,1.3.47,2.06.47h6.78c.8,0,1.51-.16,2.11-.47.6-.31,1.07-.76,1.4-1.34.34-.59.51-1.29.51-2.1,0-1.01-.16-1.81-.49-2.38-.32-.57-.78-.98-1.37-1.22-.61-.25-1.33-.37-2.16-.37h-6.78Zm5.67,4.33h-4.52c-.2,0-.34-.01-.42-.03-.08-.02-.22-.09-.22-.35,0-.27.14-.35.22-.37.09-.02.22-.03.42-.03h4.52c.19,0,.32.01.41.03.09.02.23.09.23.37s-.16.34-.23.35c-.09.02-.23.03-.41.03Zm-4.87-.48s0,.03,0,.09.01.08.01.08c.03,0,.12.02.34.02h4.52c.2,0,.3-.01.35-.02,0,0,0-.02,0-.07,0-.08-.02-.1-.02-.1-.06-.01-.18-.02-.34-.02h-4.52c-.21,0-.31.01-.35.02Z"/>
  </g>
  <g>
    <path class="cls-2" d="m243.1,75.44h15.67v4.67h-2v2.69h-5v-2.69h-1.67v2.69h-5v-2.69h-2v-4.67Zm11.22-.5h-6.78c-.68,0-1.34-.17-1.98-.5-.64-.33-1.17-.81-1.57-1.43-.41-.62-.61-1.36-.61-2.22,0-.79.12-1.45.35-1.99.23-.54.55-.97.95-1.29s.85-.55,1.34-.69,1-.21,1.52-.21h6.78c.74,0,1.43.13,2.06.39.63.26,1.14.69,1.53,1.3.39.6.58,1.44.58,2.5,0,.86-.2,1.61-.6,2.23-.4.62-.92,1.1-1.55,1.43-.63.33-1.3.49-2.02.49Zm-.94-4.41h-4.85c-.1,0-.18,0-.24.03s-.09.09-.09.21.03.2.09.22c.06.03.14.04.24.04h4.85c.1,0,.18-.01.24-.04.06-.02.09-.1.09-.22s-.03-.19-.09-.21c-.06-.02-.14-.03-.24-.03Z"/>
    <path class="cls-1" d="m256.91,82.93h-5.29v-2.69h-1.38v2.69h-5.29v-2.69h-2v-4.95h15.95v4.95h-2v2.69Zm-5-.29h4.71v-2.69h2v-4.38h-15.38v4.38h2v2.69h4.71v-2.69h1.95v2.69Zm2.41-7.57h-6.78c-.7,0-1.39-.17-2.05-.52-.66-.34-1.21-.84-1.63-1.47-.42-.64-.63-1.41-.63-2.3,0-.81.12-1.5.36-2.05.24-.56.58-1.01,1-1.34.42-.33.88-.57,1.39-.72.51-.15,1.03-.22,1.56-.22h6.78c.76,0,1.47.13,2.11.4.65.27,1.19.72,1.59,1.35.4.63.61,1.49.61,2.58,0,.89-.21,1.67-.62,2.31-.41.64-.95,1.14-1.6,1.48-.65.34-1.35.51-2.08.51Zm-6.78-8.33c-.5,0-1,.07-1.48.21-.47.14-.91.36-1.29.67-.38.3-.69.72-.91,1.23-.23.52-.34,1.17-.34,1.93,0,.83.2,1.55.59,2.14.39.59.9,1.06,1.52,1.38.62.32,1.26.48,1.92.48h6.78c.69,0,1.35-.16,1.95-.47.6-.31,1.11-.78,1.49-1.38.38-.6.58-1.32.58-2.15,0-1.03-.19-1.84-.56-2.42-.37-.58-.86-.99-1.46-1.24-.61-.25-1.28-.38-2-.38h-6.78Zm5.83,4.43h-4.85c-.12,0-.22-.02-.29-.05-.08-.03-.18-.12-.18-.35s.11-.32.19-.35c.08-.02.17-.03.28-.03h4.85c.11,0,.21.01.28.03.09.03.19.11.19.35s-.1.32-.18.35c-.08.03-.17.05-.29.05Zm-5.04-.48s0,.03,0,.08c0,.08.01.1.01.1.03,0,.1.02.18.02h4.85c.08,0,.14,0,.18-.03,0,0,0-.03,0-.09,0-.11-.01-.09-.01-.09-.03,0-.09,0-.18,0h-4.85c-.08,0-.14,0-.19.02Z"/>
  </g>
</svg>